<svg version="1.1" xmlns="http://www.w3.org/2000/svg" xmlns:xlink="http://www.w3.org/1999/xlink" width="67" height="60"
	 viewBox="0 0 67 60" style="enable-background:new 0 0 67 60;" xml:space="preserve">
<style type="text/css">
	.st0{fill:#FCE3D8;}
	.st1{fill:#FFFFFF;}
	.st2{fill:#F3CD64;}
	.st3{fill:none;}
</style>
<g id="Layer_1">
	<g>
		<g>
			<path class="st0" d="M4.3,0h48.3C55.1,0,57,1.9,57,4.3v48.3c0,2.4-1.9,4.3-4.3,4.3H4.3C1.9,57,0,55.1,0,52.7V4.3
				C0,1.9,1.9,0,4.3,0z"/>
			<ellipse class="st1" cx="28.3" cy="29.8" rx="11" ry="10.6"/>
			<path class="st2" d="M24.2,24.9C15.3,32.6,4.4,30.4,0,28.3v-23c0,0,0-2.2,0.7-3.3c0.8-1.3,2.7-1.9,2.7-1.9h25.5
				C32.6,4.8,33.1,17.2,24.2,24.9z"/>
			<rect x="1.7" y="3" transform="matrix(0.9675 -0.2527 0.2527 0.9675 -6.586 8.125)" class="st3" width="53.3" height="53.3"/>
		</g>
	</g>
	<g transform="translate(0.000000,500.000000) scale(0.100000,-0.100000)">
		<path d="M217,4958.9c-9.1-2.6-16-11.7-16-21.1c0-5.4,11.5-49.7,14.2-55.1c4.6-8.8,19.3-13,28.7-8.2c8.8,4.6,13.9,14.1,12.3,22.9
			c-2.2,12.1-13.3,50.6-15.5,53.6C235.9,4957.6,225,4961.2,217,4958.9z"/>
		<path d="M400.9,4932.7c-6-1.7-10.5-7.4-23.6-30.1c-11.3-19.2-12.5-22.1-13-27.9c-0.9-12,6.3-20.7,18.8-23.1
			c5.4-1,14.1,1.9,18.2,6.3c1.9,2.1,9.2,13.5,16.2,25.4c12,20.4,12.7,22,12.7,27.8c0,9.1-3.4,15.4-10.7,19.5
			C413.3,4934.1,407.9,4934.8,400.9,4932.7z"/>
		<path d="M66.5,4845.1c-12.7-4.3-18.2-17.9-12.7-30.3c2.6-5.8,5.2-7.8,27.5-20.6c23.7-13.8,24.2-14,30.6-14
			c7.3,0,12.7,2.3,17.1,7.3c8,9.1,7.3,22-1.7,30.6c-4.7,4.4-45.9,28.3-48.9,28.3c-1.4,0-3.2,0.2-4.1,0.6
			C73.5,4847,69.9,4846.3,66.5,4845.1z"/>
		<path d="M266.6,4844.4c-62.9-9.8-110.2-53.6-123.3-114.5c-2.9-13.3-2.9-44.6,0-57.5c11.2-50.2,44.1-88.8,90.7-106.6
			c26.8-10.3,58.8-12,87.2-4.7c47.2,12.1,85.4,48.1,100.9,95.2c10.3,31.4,9.1,67.3-3.3,98.2c-17.4,43.8-55.9,76.4-102.5,87.3
			C306.7,4844.1,275,4845.7,266.6,4844.4z M309.3,4797.8c4.1-1,12.7-4.4,19-7.5c26.3-12.7,44.8-34.8,53-63.5
			c3.4-11.6,3.6-37.8,0.6-49.2c-8.1-30.2-26.2-52.7-53-66.1c-15.3-7.6-24.4-9.6-43.5-9.7c-20.2,0-27.4,1.7-45.1,10.4
			c-10.4,5-14.5,7.9-22.6,15.5c-20.3,18.9-30.8,40.7-32.3,67c-1.6,29.9,8.1,55.2,29.3,76.4c15.2,15.2,31.9,24.2,51.9,28
			C276.7,4801,299.4,4800.3,309.3,4797.8z"/>
		<path d="M492.9,4778.4c-25.9-7-30.3-9.2-34.1-16.8c-6.4-13.2,0.5-28,14.7-31.8c4.8-1.3,6.8-0.9,30.2,5.2c27,7,29.3,7.9,33.7,12.8
			c4.6,4.8,5.8,8.1,5.9,14.5c0.1,7.6-3.5,14.6-9.6,18.6C526.1,4786,520,4785.7,492.9,4778.4z"/>
		<path d="M67.7,4667.2c-29.5-7.8-29.2-7.6-33.9-11.7c-5.1-4.6-7.2-9.3-7.2-17.1c0-11.5,9.7-21.3,21.2-21.3
			c5.1,0,49.9,11.5,55.2,14.2c5.1,2.6,9.5,9.9,10,17c0.9,10.8-5.1,19.8-15.6,23.4C91.8,4673.5,91,4673.4,67.7,4667.2z"/>
		<path d="M447.8,4619.7c-6.8-3.5-10.8-9.1-12.3-17.1c-1-5.4,1.9-14.1,6.3-18.2c2.1-1.9,13.5-9.2,25.4-16.2
			c20.2-11.7,22-12.7,27.7-12.7c3.3,0,7.8,0.7,9.8,1.6c8.5,3.5,14.2,13.9,12.9,23.7c-1.1,8.7-5.4,12.8-25.3,24.5
			c-10,5.9-20.7,12-23.9,13.6C461.6,4622.1,453,4622.4,447.8,4619.7z"/>
		<path d="M177.1,4549.3c-2.9-0.9-6.7-3.3-8.8-5.4c-1.9-2.1-9.2-13.5-16.2-25.4c-11.7-20.1-12.7-22-12.7-27.6
			c0-7.2,1.5-11.3,5.5-15.6c8.7-9.2,22.9-9.8,31.5-1.4c2.1,2.2,6.3,8.1,9.2,13.3c20.6,35.7,19.9,34.2,19.9,40.6
			C205.6,4543.3,191.7,4553.7,177.1,4549.3z"/>
		<path d="M325.8,4527.1c-6.7-3.1-10.9-9.1-12.5-17.7c-0.6-3.1,11.3-50.6,13.8-55.3c3.9-7.5,13.8-12.9,22-12
			c5.9,0.7,12.5,4.7,15.7,9.6c5.1,7.6,4.9,12.4-1.8,38.2c-3.2,12.5-6.8,25-8,27.6C350.6,4527.5,336.4,4532.2,325.8,4527.1z"/>
	</g>
</g>
<g id="Layer_2">
</g>
</svg>
